<?xml version="1.0" encoding="UTF-8"?>
<svg id="Layer_1" xmlns="http://www.w3.org/2000/svg" version="1.1" viewBox="0 0 300 300">
  <!-- Generator: Adobe Illustrator 29.6.1, SVG Export Plug-In . SVG Version: 2.1.1 Build 9)  -->
  <defs>
    <style>
      .st0 {
        fill: #333533;
      }

      .st1 {
        fill: #fff;
      }

      .st2 {
        fill: #efcc6e;
      }

      .st3 {
        fill: #242423;
      }
    </style>
  </defs>
  <g>
    <path class="st2" d="M170.8-159.7,175.6-197.1c-.1-1-1.1-1.5-2-1.2h0c-.4.1-1.9.5-3,.9s-1.3,1.1-1.1,1.9c.7,3,1,6,1.4,9,.6,4.6,1.6,9.8,1.5,14.5,0,.1,0,.3,0,.4,0,.9.7,1.5,1.6,1.4s0,0,0,0c1.2-.2,4.7,0,4.9-1.6,0-.7-.6-3.5-.7-4.4-.2-1-.4-1.8-.4-2.8-.1-1.7-.4-4.4-.7-6.2-.5-3.2-.9-6.2-1-9.3s-.2-1.8-.4-2.7ZM182.9-183.8c.3,3.9,1.6,5.3,2.2,8.5s.2,2.3.3,3.6c0,2.8-.6,4.6-2.9,6.2l-.6.3c-.4,0-1,.1-2,.2s-2.2.1-3.2.4-2.2.8-2.5.9c-1.6.5-1,.5-4.1.7s-4.4-2.4-4.8-5.1c-.3-2.6.2-5.6.2-8.2-.2-6.9-1.4-13.9-2.5-20.7-.3-1.6-1.7-4.4.5-5.2.3-.1.6-.2.9-.3.4-.2,1.2-.4,1.9-.6s2.4-.6,3-.8.8-.2,1.2-.3c1.9-.6,7.3-2,9-1.5.4.1,1.5,1.1,1.6,1.6s.2,1.4.3,1.8c.3,2.1.6,7.9.7,9.3.1,1.5.1,1.1.2,2.6l.7,6.8Z"/>
    <path class="st2" d="M151-207.4c.5,0,1.5,0,1.6.1.3.2.4.9.4,1.1s0,2.1,0,2.5c.3,4.5-1,10.2-1.3,15-.4,4.9-1.1,14.2-.5,18.8,0,.6.5.9.5,1.7s-.2,2-.4,2.5-2.2,1.2-2.8,1.2-1,0-1.5-.2c-1.4-.7-2.2-2.2-2.2-3.8l.3-13.5c0-.5-.4-.8-.9-.7-1.2.3-2.2.1-3.5-.1s-.7.1-.8.5c-.4,1.6-.2,3.2-.3,4.8-.3,4.2-.8,9.1-.2,13.2,0,.6.6,1.6.6,2s-.2.7-.4,1.1c-.5.9-1.5,1.4-2.5,1.3s-.2,0-.2,0c0,0-1.3-.7-1.6-.8s-.2,0-.2-.1c-.9-.6-1.5-1.6-1.7-2.7-.2-1.2-.4-2.5-.5-3.6-.2-8.3,1.1-17.2,2.7-25.3.6-3.2,2-7.1,2.3-10.2s-.3-1.2-.1-2.1c.3-1.6,3.2-2.7,4.1-1.4s.9,1.4,1,1.5c1.7,3-1,10.2-1.5,13.8s0,1.5-.2,2.3.1.5.4.5c.7,0,1.4,0,2,0,1.2,0,2,.5,2.3-1.6s.3-4.3.5-6.2c.3-1.9.6-4.2.8-6.2s0-2.8.8-4,2.4-.9,2.9-1Z"/>
    <path class="st2" d="M149.7-257.6c.3,0,.4.3.6.6s.5.6.6.8c.2.8.4,1.1.6,1.6s.3,1,.3,1.3c.2,1.1.3,2.5.5,3.7.5,3.6.3,6.8.5,10.3s.8,6.8.9,10.1c0,.8-2.1,1.1-2.7,1.2s-1.3,0-1.8,0-2.9-.1-3.3,0-.6,0-.7.2l-.3,3.3c0,.8,0,1.5,0,2.3.2,1.9,0,3.8,0,5.7s.9,3.5-.2,4.7-3.4-.2-3.8-.5c-.9-.6-1.1-.8-1.6-1.6s-.2-1.4-.2-1.5c0-.4-.2-1.2-.2-1.6-.1-3.8,0-7.8.2-11.6.3-3.4-.9-8.1-.9-12,0-2.8-1.3-5.7-1.6-8.2s0-4.3-.2-6.2c0-1.1,1.3-2.2,2.3-2.3s1.1.2,1.7.3c1.7,0,3.7,0,5.3,0s3.1-.7,3.9-.4ZM147.5-234.2c.2-.2-.5-3.7-.5-4.2-.1-3.1.3-6.5,0-9.6s-.3-2.5-.5-2.9c-.5-1-4.1-.9-4.3.2-.3,1.4,0,3.7.5,5.4s.4,1.4.5,2.2l1.3,9.4,2.9-.5Z"/>
    <path class="st2" d="M131.3-217c.6-.5,0-3.6,0-4.4,0-.7,0-1.5,0-2.4.2-3.5-.8-6.8-1.3-10.2l-.7-.4c-.9.7-1.8.6-2.7.7s-1.4,0-2,0-2.5-.7-2.8-.8c-1.5-.6-3.9-7.2-4.3-8.8s-.5-1.5-.6-2.3c-.3-2.2-.7-3.8,1-5.6s5.3-3.1,7-3.4,3.9-.3,5.9-.6,1.2,0,1.7.5c1.5,1.4,1.2,4.6-.9,5.1s-3.7.2-5.7.8c-4.6,1.4-3.5,3.9-2.1,6.9.6,1.3,2.1,1.6,3.2.8s.1,0,.2-.1c.3-.1,1.6-.7,1.9-.7,1.2-.4,1.8,0,2.5.9,5.6,5.6,5.6,17.7,6.1,25.2,0,1.2.3,1.6.2,3.3s-2.6,1.4-3.9,1.7c-2.6.6-5.3,1.3-7.9,1.9s-.9,0-1.3-.1c-1.4-.6-2-1.7-2.6-3.1s-.1-1.8.6-2.4c.4-.3.8-.6,1-.7,1.5-.6,6.9-.9,7.7-1.5Z"/>
    <path class="st2" d="M167.8-257.2c.9.7,1.9,3.9,1.2,4.9s-3.9.4-5.7.5-.8.3-.8.7c-.1.6-.3,1.3-.4,1.9-.4,2.9.4,6,.1,9,0,.7.5,1.3,1.2,1.4,1.6,0,3.7.1,4.1,1.3.6,2.1-.6,3.6-2.4,4.4s-1.4.2-2.1.3-1.4.6-1.5,1.4c-.1,2-.6,4-.7,5.9s-.2,4.9,0,5.7,4.7.8,5.4,2.8c.2.6.4,2.9.2,3.5-.4,1.3-5.3,1-6.3.4s-.3-.2-.6-.3-.8-.5-1-.6c-2-1.2-3-2.8-3.6-5.2s-.3-1.4-.2-2c.4-3.1.4-6.8.7-10.1.7-7.3.9-14.8,1.5-22,.2-1.9-.4-3,1.6-4.7,1.4-1.2,5.1-.4,7-.2s1.4.5,2.2,1Z"/>
    <path class="st2" d="M178.6-254.6s.7.3,1.3.5c1.4.7,2.7.9,4.4,1.7s.7.4.8.5c.7.5.4,2.7,0,4s-.5.7-1,.7c-1.6,0-2.8-1.2-4.4-1.2s-.4,0-.5.2c-.2.3-.3.7-.4.8-3.2,7.2,0,15.2-1.7,22.7,0,.3-.2.8-.2,1-.5,2.2-1.1,4.4-1.5,6.6s.5,1.6,1.4,1.5c1.6-.1,3.8-.3,4.5,0,1.2.5,1.7,2,1.7,3.4s-.7,1.9-1.7,2.2-.6.2-1,.3c-1.5.4-3.6.8-5.1.7-2.2-.2-4.7-1.4-5.7-3.5s-.9-2.4-.9-2.7c0-.6,0-1.1,0-1.6,0-.9.4-1.8.6-2.7.6-3.3,2.5-7.5,2.8-10.7s-.2-9-.2-13c0-2.6,2.1-9.8,4-11.4s2-.6,2.9-.2Z"/>
    <path class="st2" d="M121.3-172c0,.4.4.8.9.8,1.6.2,4.5.2,5.2.9s.8,3.7.4,4.4-1.2.6-1.6.7c-1.4,0-3.6-.3-4.6-.6s-1.8-.4-2.5-.6c-1.9-.5-3.8-1.6-4.6-3-.3-.6.4-4.4.5-4.9s.6-2.3,1-3.1c3.6-8.4,5-17.9,8.2-26.6.3-.8.3-1.8,1.1-2.7.6-.7,1.9-.6,2.3-.6.8,0,3.2.3,4,.5s2.1,1.2,2.3,2.1,0,2.8-.3,3.2c-1.2,1.6-3.5-1.4-5.1,2.2-1.7,4.1-1.9,8.2-3,12.1-.3,1-.7,2.5-1.1,3.5-1,2.7-1.6,5.3-2.4,8-.3,1.3-1.1,2.2-.9,3.5Z"/>
    <path class="st2" d="M157.7-163.1c-1-1.2-1.8-2.7-1.8-4.4-.1-6,.9-12.1.5-18-.4-6.2-2.1-12.3-2.1-18.6-.1-1.6,2-2.3,3.3-2.3,2,0,2.7,3.4,3,5,1.1,6.2,3.2,19.2,2.4,25.1,0,.7-.1,1.1-.2,1.6-.1,1-.2,5.3,0,6.6.1,1.2.7,2.7.7,3.9,0,3.6-3.9,3.3-5.7,1.2Z"/>
    <g>
      <path class="st2" d="M119.8-227.8l-16.2-19.7c8.9-6.6,25.2-15.9,47.1-16.2,0,0,.1,0,.2,0,21.8,0,38.2,9,47.1,15.4l-16.4,20.6,8.8,7,50.8-63.8-8.8-7-27.4,34.4c-10.1-7.4-29-17.9-54.1-17.9h0s-.5,0-.5,0h0c-25.2.4-43.9,11.2-53.9,18.8l-28.9-35.3-8.7,7.2,52.3,63.7,8.7-7.2Z"/>
      <path class="st2" d="M183.9-188.4l13.7,17c-8.9,6.5-25.3,15.7-47.2,15.8-21.9-.1-38.3-9.3-47.2-15.8l13.7-17-8.8-7.1-48.5,59.9,8.8,7.1,27.7-34.2c10.1,7.5,28.9,18.1,54.1,18.3h.5s0,0,0,0c25.2-.2,44-10.8,54.1-18.3l27.7,34.2,8.8-7.1-48.5-59.9-8.8,7.1Z"/>
    </g>
  </g>
  <g>
    <path class="st3" d="M530.8-159.7,535.6-197.1c-.1-1-1.1-1.5-2-1.2h0c-.4.1-1.9.5-3,.9s-1.3,1.1-1.1,1.9c.7,3,1,6,1.4,9,.6,4.6,1.6,9.8,1.5,14.5,0,.1,0,.3,0,.4,0,.9.7,1.5,1.6,1.4s0,0,0,0c1.2-.2,4.7,0,4.9-1.6s-.6-3.5-.7-4.4c-.2-1-.4-1.8-.4-2.8-.1-1.7-.4-4.4-.7-6.2-.5-3.2-.9-6.2-1-9.3s-.2-1.8-.4-2.7ZM542.9-183.8c.3,3.9,1.6,5.3,2.2,8.5s.2,2.3.3,3.6c0,2.8-.6,4.6-2.9,6.2l-.6.3c-.4,0-1,.1-2,.2s-2.2.1-3.2.4-2.2.8-2.5.9c-1.6.5-1,.5-4.1.7s-4.4-2.4-4.8-5.1c-.3-2.6.2-5.6.2-8.2-.2-6.9-1.4-13.9-2.5-20.7-.3-1.6-1.7-4.4.5-5.2.3-.1.6-.2.9-.3.4-.2,1.2-.4,1.9-.6s2.4-.6,3-.8.8-.2,1.2-.3c1.9-.6,7.3-2,9-1.5.4.1,1.5,1.1,1.6,1.6s.2,1.4.3,1.8c.3,2.1.6,7.9.7,9.3.1,1.5.1,1.1.2,2.6l.7,6.8Z"/>
    <path class="st3" d="M511-207.4c.5,0,1.5,0,1.6.1.3.2.4.9.4,1.1s0,2.1,0,2.5c.3,4.5-1,10.2-1.3,15-.4,4.9-1.1,14.2-.5,18.8,0,.6.5.9.5,1.7s-.2,2-.4,2.5-2.2,1.2-2.8,1.2-1,0-1.5-.2c-1.4-.7-2.2-2.2-2.2-3.8l.3-13.5c0-.5-.4-.8-.9-.7-1.2.3-2.2.1-3.5-.1s-.7.1-.8.5c-.4,1.6-.2,3.2-.3,4.8-.3,4.2-.8,9.1-.2,13.2,0,.6.6,1.6.6,2s-.2.7-.4,1.1c-.5.9-1.5,1.4-2.5,1.3s-.2,0-.2,0c0,0-1.3-.7-1.6-.8s-.2,0-.2-.1c-.9-.6-1.5-1.6-1.7-2.7-.2-1.2-.4-2.5-.5-3.6-.2-8.3,1.1-17.2,2.7-25.3.6-3.2,2-7.1,2.3-10.2s-.3-1.2-.1-2.1c.3-1.6,3.2-2.7,4.1-1.4s.9,1.4,1,1.5c1.7,3-1,10.2-1.5,13.8s0,1.5-.2,2.3.1.5.4.5c.7,0,1.4,0,2,0,1.2,0,2,.5,2.3-1.6s.3-4.3.5-6.2c.3-1.9.6-4.2.8-6.2s0-2.8.8-4,2.4-.9,2.9-1Z"/>
    <path class="st3" d="M509.7-257.6c.3,0,.4.3.6.6s.5.6.6.8c.2.8.4,1.1.6,1.6s.3,1,.3,1.3c.2,1.1.3,2.5.5,3.7.5,3.6.3,6.8.5,10.3.2,3.4.8,6.8.9,10.1,0,.8-2.1,1.1-2.7,1.2s-1.3,0-1.8,0-2.9-.1-3.3,0-.6,0-.7.2l-.3,3.3c0,.8,0,1.5,0,2.3.2,1.9,0,3.8,0,5.7s.9,3.5-.2,4.7-3.4-.2-3.8-.5c-.9-.6-1.1-.8-1.6-1.6s-.2-1.4-.2-1.5c0-.4-.2-1.2-.2-1.6-.1-3.8,0-7.8.2-11.6.3-3.4-.9-8.1-.9-12,0-2.8-1.3-5.7-1.6-8.2s0-4.3-.2-6.2c0-1.1,1.3-2.2,2.3-2.3s1.1.2,1.7.3c1.7,0,3.7,0,5.3,0s3.1-.7,3.9-.4ZM507.5-234.2c.2-.2-.5-3.7-.5-4.2-.1-3.1.3-6.5,0-9.6s-.3-2.5-.5-2.9c-.5-1-4.1-.9-4.3.2-.3,1.4,0,3.7.5,5.4s.4,1.4.5,2.2l1.3,9.4,2.9-.5Z"/>
    <path class="st3" d="M491.3-217c.6-.5,0-3.6,0-4.4,0-.7,0-1.5,0-2.4.2-3.5-.8-6.8-1.3-10.2l-.7-.4c-.9.7-1.8.6-2.7.7s-1.4,0-2,0-2.5-.7-2.8-.8c-1.5-.6-3.9-7.2-4.3-8.8s-.5-1.5-.6-2.3c-.3-2.2-.7-3.8,1-5.6s5.3-3.1,7-3.4,3.9-.3,5.9-.6,1.2,0,1.7.5c1.5,1.4,1.2,4.6-.9,5.1s-3.7.2-5.7.8c-4.6,1.4-3.5,3.9-2.1,6.9.6,1.3,2.1,1.6,3.2.8s.1,0,.2-.1c.3-.1,1.6-.7,1.9-.7,1.2-.4,1.8,0,2.5.9,5.6,5.6,5.6,17.7,6.1,25.2,0,1.2.3,1.6.2,3.3s-2.6,1.4-3.9,1.7c-2.6.6-5.3,1.3-7.9,1.9s-.9,0-1.3-.1c-1.4-.6-2-1.7-2.6-3.1s-.1-1.8.6-2.4c.4-.3.8-.6,1-.7,1.5-.6,6.9-.9,7.7-1.5Z"/>
    <path class="st3" d="M527.8-257.2c.9.7,1.9,3.9,1.2,4.9s-3.9.4-5.7.5-.8.3-.8.7c-.1.6-.3,1.3-.4,1.9-.4,2.9.4,6,.1,9,0,.7.5,1.3,1.2,1.4,1.6,0,3.7.1,4.1,1.3.6,2.1-.6,3.6-2.4,4.4s-1.4.2-2.1.3-1.4.6-1.5,1.4c-.1,2-.6,4-.7,5.9s-.2,4.9,0,5.7,4.7.8,5.4,2.8c.2.6.4,2.9.2,3.5-.4,1.3-5.3,1-6.3.4s-.3-.2-.6-.3-.8-.5-1-.6c-2-1.2-3-2.8-3.6-5.2s-.3-1.4-.2-2c.4-3.1.4-6.8.7-10.1.7-7.3.9-14.8,1.5-22,.2-1.9-.4-3,1.6-4.7s5.1-.4,7-.2,1.4.5,2.2,1Z"/>
    <path class="st3" d="M538.6-254.6s.7.3,1.3.5c1.4.7,2.7.9,4.4,1.7s.7.4.8.5c.7.5.4,2.7,0,4s-.5.7-1,.7c-1.6,0-2.8-1.2-4.4-1.2s-.4,0-.5.2c-.2.3-.3.7-.4.8-3.2,7.2,0,15.2-1.7,22.7,0,.3-.2.8-.2,1-.5,2.2-1.1,4.4-1.5,6.6s.5,1.6,1.4,1.5c1.6-.1,3.8-.3,4.5,0,1.2.5,1.7,2,1.7,3.4s-.7,1.9-1.7,2.2-.6.2-1,.3c-1.5.4-3.6.8-5.1.7-2.2-.2-4.7-1.4-5.7-3.5s-.9-2.4-.9-2.7c0-.6,0-1.1,0-1.6,0-.9.4-1.8.6-2.7.6-3.3,2.5-7.5,2.8-10.7s-.2-9-.2-13c0-2.6,2.1-9.8,4-11.4s2-.6,2.9-.2Z"/>
    <path class="st3" d="M481.3-172c0,.4.4.8.9.8,1.6.2,4.5.2,5.2.9s.8,3.7.4,4.4-1.2.6-1.6.7c-1.4,0-3.6-.3-4.6-.6s-1.8-.4-2.5-.6c-1.9-.5-3.8-1.6-4.6-3-.3-.6.4-4.4.5-4.9s.6-2.3,1-3.1c3.6-8.4,5-17.9,8.2-26.6.3-.8.3-1.8,1.1-2.7.6-.7,1.9-.6,2.3-.6.8,0,3.2.3,4,.5s2.1,1.2,2.3,2.1,0,2.8-.3,3.2c-1.2,1.6-3.5-1.4-5.1,2.2-1.7,4.1-1.9,8.2-3,12.1-.3,1-.7,2.5-1.1,3.5-1,2.7-1.6,5.3-2.4,8-.3,1.3-1.1,2.2-.9,3.5Z"/>
    <path class="st3" d="M517.7-163.1c-1-1.2-1.8-2.7-1.8-4.4-.1-6,.9-12.1.5-18-.4-6.2-2.1-12.3-2.1-18.6-.1-1.6,2-2.3,3.3-2.3,2,0,2.7,3.4,3,5,1.1,6.2,3.2,19.2,2.4,25.1,0,.7-.1,1.1-.2,1.6-.1,1-.2,5.3,0,6.6.1,1.2.7,2.7.7,3.9,0,3.6-3.9,3.3-5.7,1.2Z"/>
    <g>
      <path class="st3" d="M479.8-227.8l-16.2-19.7c8.9-6.6,25.2-15.9,47.1-16.2,0,0,.1,0,.2,0,21.8,0,38.2,9,47.1,15.4l-16.4,20.6,8.8,7,50.8-63.8-8.8-7-27.4,34.4c-10.1-7.4-29-17.9-54.1-17.9h0s-.5,0-.5,0h0c-25.2.4-43.9,11.2-53.9,18.8l-28.9-35.3-8.7,7.2,52.3,63.7,8.7-7.2Z"/>
      <path class="st3" d="M543.9-188.4l13.7,17c-8.9,6.5-25.3,15.7-47.2,15.8-21.9-.1-38.3-9.3-47.2-15.8l13.7-17-8.8-7.1-48.5,59.9,8.8,7.1,27.7-34.2c10.1,7.5,28.9,18.1,54.1,18.3h.5s0,0,0,0c25.2-.2,44-10.8,54.1-18.3l27.7,34.2,8.8-7.1-48.5-59.9-8.8,7.1Z"/>
    </g>
  </g>
  <g>
    <path class="st1" d="M890.8-159.7,895.6-197.1c-.1-1-1.1-1.5-2-1.2h0c-.4.1-1.9.5-3,.9s-1.3,1.1-1.1,1.9c.7,3,1,6,1.4,9,.6,4.6,1.6,9.8,1.5,14.5,0,.1,0,.3,0,.4,0,.9.7,1.5,1.6,1.4s0,0,0,0c1.2-.2,4.7,0,4.9-1.6s-.6-3.5-.7-4.4c-.2-1-.4-1.8-.4-2.8-.1-1.7-.4-4.4-.7-6.2-.5-3.2-.9-6.2-1-9.3s-.2-1.8-.4-2.7ZM902.9-183.8c.3,3.9,1.6,5.3,2.2,8.5s.2,2.3.3,3.6c0,2.8-.6,4.6-2.9,6.2l-.6.3c-.4,0-1,.1-2,.2s-2.2.1-3.2.4-2.2.8-2.5.9c-1.6.5-1,.5-4.1.7s-4.4-2.4-4.8-5.1c-.3-2.6.2-5.6.2-8.2-.2-6.9-1.4-13.9-2.5-20.7-.3-1.6-1.7-4.4.5-5.2.3-.1.6-.2.9-.3.4-.2,1.2-.4,1.9-.6s2.4-.6,3-.8.8-.2,1.2-.3c1.9-.6,7.3-2,9-1.5.4.1,1.5,1.1,1.6,1.6s.2,1.4.3,1.8c.3,2.1.6,7.9.7,9.3.1,1.5.1,1.1.2,2.6l.7,6.8Z"/>
    <path class="st1" d="M871-207.4c.5,0,1.5,0,1.6.1.3.2.4.9.4,1.1s0,2.1,0,2.5c.3,4.5-1,10.2-1.3,15-.4,4.9-1.1,14.2-.5,18.8,0,.6.5.9.5,1.7s-.2,2-.4,2.5-2.2,1.2-2.8,1.2-1,0-1.5-.2c-1.4-.7-2.2-2.2-2.2-3.8l.3-13.5c0-.5-.4-.8-.9-.7-1.2.3-2.2.1-3.5-.1s-.7.1-.8.5c-.4,1.6-.2,3.2-.3,4.8-.3,4.2-.8,9.1-.2,13.2,0,.6.6,1.6.6,2s-.2.7-.4,1.1c-.5.9-1.5,1.4-2.5,1.3s-.2,0-.2,0c0,0-1.3-.7-1.6-.8s-.2,0-.2-.1c-.9-.6-1.5-1.6-1.7-2.7-.2-1.2-.4-2.5-.5-3.6-.2-8.3,1.1-17.2,2.7-25.3.6-3.2,2-7.1,2.3-10.2s-.3-1.2-.1-2.1c.3-1.6,3.2-2.7,4.1-1.4s.9,1.4,1,1.5c1.7,3-1,10.2-1.5,13.8s0,1.5-.2,2.3.1.5.4.5c.7,0,1.4,0,2,0,1.2,0,2,.5,2.3-1.6s.3-4.3.5-6.2c.3-1.9.6-4.2.8-6.2s0-2.8.8-4,2.4-.9,2.9-1Z"/>
    <path class="st1" d="M869.7-257.6c.3,0,.4.3.6.6s.5.6.6.8c.2.8.4,1.1.6,1.6s.3,1,.3,1.3c.2,1.1.3,2.5.5,3.7.5,3.6.3,6.8.5,10.3.2,3.4.8,6.8.9,10.1,0,.8-2.1,1.1-2.7,1.2s-1.3,0-1.8,0-2.9-.1-3.3,0-.6,0-.7.2l-.3,3.3c0,.8,0,1.5,0,2.3.2,1.9,0,3.8,0,5.7,0,1.5.9,3.5-.2,4.7s-3.4-.2-3.8-.5c-.9-.6-1.1-.8-1.6-1.6s-.2-1.4-.2-1.5c0-.4-.2-1.2-.2-1.6-.1-3.8,0-7.8.2-11.6.3-3.4-.9-8.1-.9-12,0-2.8-1.3-5.7-1.6-8.2-.3-1.9,0-4.3-.2-6.2,0-1.1,1.3-2.2,2.3-2.3s1.1.2,1.7.3c1.7,0,3.7,0,5.3,0s3.1-.7,3.9-.4ZM867.5-234.2c.2-.2-.5-3.7-.5-4.2-.1-3.1.3-6.5,0-9.6,0-.5-.3-2.5-.5-2.9-.5-1-4.1-.9-4.3.2s0,3.7.5,5.4.4,1.4.5,2.2l1.3,9.4,2.9-.5Z"/>
    <path class="st1" d="M851.3-217c.6-.5,0-3.6,0-4.4,0-.7,0-1.5,0-2.4.2-3.5-.8-6.8-1.3-10.2l-.7-.4c-.9.7-1.8.6-2.7.7s-1.4,0-2,0-2.5-.7-2.8-.8c-1.5-.6-3.9-7.2-4.3-8.8s-.5-1.5-.6-2.3c-.3-2.2-.7-3.8,1-5.6,1.1-1.2,5.3-3.1,7-3.4s3.9-.3,5.9-.6,1.2,0,1.7.5c1.5,1.4,1.2,4.6-.9,5.1s-3.7.2-5.7.8c-4.6,1.4-3.5,3.9-2.1,6.9.6,1.3,2.1,1.6,3.2.8s.1,0,.2-.1c.3-.1,1.6-.7,1.9-.7,1.2-.4,1.8,0,2.5.9,5.6,5.6,5.6,17.7,6.1,25.2,0,1.2.3,1.6.2,3.3s-2.6,1.4-3.9,1.7c-2.6.6-5.3,1.3-7.9,1.9s-.9,0-1.3-.1c-1.4-.6-2-1.7-2.6-3.1s-.1-1.8.6-2.4c.4-.3.8-.6,1-.7,1.5-.6,6.9-.9,7.7-1.5Z"/>
    <path class="st1" d="M887.8-257.2c.9.7,1.9,3.9,1.2,4.9s-3.9.4-5.7.5-.8.3-.8.7c-.1.6-.3,1.3-.4,1.9-.4,2.9.4,6,.1,9,0,.7.5,1.3,1.2,1.4,1.6,0,3.7.1,4.1,1.3.6,2.1-.6,3.6-2.4,4.4s-1.4.2-2.1.3-1.4.6-1.5,1.4c-.1,2-.6,4-.7,5.9s-.2,4.9,0,5.7,4.7.8,5.4,2.8c.2.6.4,2.9.2,3.5-.4,1.3-5.3,1-6.3.4s-.3-.2-.6-.3-.8-.5-1-.6c-2-1.2-3-2.8-3.6-5.2s-.3-1.4-.2-2c.4-3.1.4-6.8.7-10.1.7-7.3.9-14.8,1.5-22,.2-1.9-.4-3,1.6-4.7s5.1-.4,7-.2,1.4.5,2.2,1Z"/>
    <path class="st1" d="M898.6-254.6s.7.3,1.3.5c1.4.7,2.7.9,4.4,1.7s.7.4.8.5c.7.5.4,2.7,0,4s-.5.7-1,.7c-1.6,0-2.8-1.2-4.4-1.2s-.4,0-.5.2c-.2.3-.3.7-.4.8-3.2,7.2,0,15.2-1.7,22.7,0,.3-.2.8-.2,1-.5,2.2-1.1,4.4-1.5,6.6s.5,1.6,1.4,1.5c1.6-.1,3.8-.3,4.5,0,1.2.5,1.7,2,1.7,3.4s-.7,1.9-1.7,2.2-.6.2-1,.3c-1.5.4-3.6.8-5.1.7-2.2-.2-4.7-1.4-5.7-3.5s-.9-2.4-.9-2.7c0-.6,0-1.1,0-1.6,0-.9.4-1.8.6-2.7.6-3.3,2.5-7.5,2.8-10.7s-.2-9-.2-13c0-2.6,2.1-9.8,4-11.4s2-.6,2.9-.2Z"/>
    <path class="st1" d="M841.3-172c0,.4.4.8.9.8,1.6.2,4.5.2,5.2.9s.8,3.7.4,4.4-1.2.6-1.6.7c-1.4,0-3.6-.3-4.6-.6s-1.8-.4-2.5-.6c-1.9-.5-3.8-1.6-4.6-3-.3-.6.4-4.4.5-4.9s.6-2.3,1-3.1c3.6-8.4,5-17.9,8.2-26.6.3-.8.3-1.8,1.1-2.7.6-.7,1.9-.6,2.3-.6.8,0,3.2.3,4,.5s2.1,1.2,2.3,2.1,0,2.8-.3,3.2c-1.2,1.6-3.5-1.4-5.1,2.2-1.7,4.1-1.9,8.2-3,12.1-.3,1-.7,2.5-1.1,3.5-1,2.7-1.6,5.3-2.4,8-.3,1.3-1.1,2.2-.9,3.5Z"/>
    <path class="st1" d="M877.7-163.1c-1-1.2-1.8-2.7-1.8-4.4-.1-6,.9-12.1.5-18-.4-6.2-2.1-12.3-2.1-18.6-.1-1.6,2-2.3,3.3-2.3,2,0,2.7,3.4,3,5,1.1,6.2,3.2,19.2,2.4,25.1,0,.7-.1,1.1-.2,1.6-.1,1-.2,5.3,0,6.6.1,1.2.7,2.7.7,3.9,0,3.6-3.9,3.3-5.7,1.2Z"/>
    <g>
      <path class="st1" d="M839.8-227.8l-16.2-19.7c8.9-6.6,25.2-15.9,47.1-16.2,0,0,.1,0,.2,0,21.8,0,38.2,9,47.1,15.4l-16.4,20.6,8.8,7,50.8-63.8-8.8-7-27.4,34.4c-10.1-7.4-29-17.9-54.1-17.9h0s-.5,0-.5,0h0c-25.2.4-43.9,11.2-53.9,18.8l-28.9-35.3-8.7,7.2,52.3,63.7,8.7-7.2Z"/>
      <path class="st1" d="M903.9-188.4l13.7,17c-8.9,6.5-25.3,15.7-47.2,15.8-21.9-.1-38.3-9.3-47.2-15.8l13.7-17-8.8-7.1-48.5,59.9,8.8,7.1,27.7-34.2c10.1,7.5,28.9,18.1,54.1,18.3h.5s0,0,0,0c25.2-.2,44-10.8,54.1-18.3l27.7,34.2,8.8-7.1-48.5-59.9-8.8,7.1Z"/>
    </g>
  </g>
  <g>
    <path class="st2" d="M109,139.3c.3.5.6,1,1.1,1.3.5.3,1,.6,1.6.7.6.2,1.3.2,1.9.2s.9,0,1.4-.1c.5,0,1-.2,1.4-.4.4-.2.8-.5,1.1-.9.3-.4.4-.8.4-1.4s-.2-1.1-.6-1.5c-.4-.4-.9-.7-1.6-1-.6-.3-1.4-.5-2.2-.7-.8-.2-1.6-.4-2.5-.6-.9-.2-1.7-.5-2.5-.8-.8-.3-1.5-.7-2.2-1.2-.6-.5-1.2-1.1-1.6-1.8-.4-.7-.6-1.6-.6-2.7s.3-2.2.8-3.1c.5-.9,1.2-1.6,2-2.2.8-.6,1.7-1,2.8-1.3,1-.3,2.1-.4,3.1-.4s2.3.1,3.4.4c1.1.3,2.1.7,2.9,1.3.9.6,1.5,1.4,2,2.3.5.9.8,2.1.8,3.4h-4.9c0-.7-.2-1.3-.4-1.7-.2-.4-.6-.8-1-1.1-.4-.3-.9-.4-1.4-.5-.5-.1-1.1-.2-1.7-.2s-.8,0-1.2.1c-.4,0-.8.2-1.1.4-.3.2-.6.5-.8.8-.2.3-.3.7-.3,1.2s0,.8.3,1.1c.2.3.5.5,1,.8.5.2,1.2.5,2.1.7.9.2,2,.5,3.5.9.4,0,1,.2,1.8.5.8.2,1.5.6,2.3,1.1.7.5,1.4,1.1,1.9,2,.5.8.8,1.9.8,3.2s-.2,2-.6,2.9c-.4.9-1,1.7-1.8,2.3-.8.7-1.8,1.2-3,1.5-1.2.4-2.6.5-4.1.5s-2.5-.2-3.7-.5c-1.2-.3-2.2-.8-3.1-1.5-.9-.7-1.6-1.5-2.2-2.5-.5-1-.8-2.2-.8-3.7h4.9c0,.8.1,1.4.4,2Z"/>
    <path class="st2" d="M136.3,122.1c1.4,0,2.7.2,3.7.6,1,.4,1.8,1,2.5,1.7.6.7,1.1,1.5,1.4,2.3.3.9.4,1.8.4,2.7s-.1,1.8-.4,2.7c-.3.9-.7,1.7-1.4,2.4-.6.7-1.4,1.2-2.5,1.7-1,.4-2.2.6-3.7.6h-5.3v8.2h-5v-22.9h10.3ZM134.9,132.9c.6,0,1.1,0,1.7-.1.5,0,1-.3,1.4-.5.4-.2.7-.6,1-1,.2-.4.4-1,.4-1.8s-.1-1.3-.4-1.8c-.2-.4-.6-.8-1-1-.4-.2-.9-.4-1.4-.5-.5,0-1.1-.1-1.7-.1h-3.9v6.9h3.9Z"/>
    <path class="st2" d="M164.5,122.1v4.2h-12.1v4.9h11.1v3.9h-11.1v5.6h12.3v4.2h-17.4v-22.9h17.1Z"/>
    <path class="st2" d="M182.8,128.2c-.3-.5-.7-.9-1.1-1.3-.4-.4-1-.6-1.5-.8-.6-.2-1.2-.3-1.8-.3-1.1,0-2.1.2-2.9.7-.8.4-1.4,1-1.9,1.8-.5.7-.8,1.6-1.1,2.5-.2.9-.3,1.9-.3,2.9s.1,1.9.3,2.8c.2.9.6,1.7,1.1,2.5.5.7,1.1,1.3,1.9,1.7.8.4,1.8.7,2.9.7s2.7-.5,3.6-1.4c.9-.9,1.4-2.2,1.6-3.7h4.9c-.1,1.4-.5,2.7-1,3.9-.5,1.2-1.2,2.1-2.1,2.9-.9.8-1.9,1.4-3.1,1.9-1.2.4-2.5.6-3.9.6s-3.3-.3-4.7-.9c-1.4-.6-2.6-1.4-3.5-2.5-1-1.1-1.7-2.3-2.2-3.8-.5-1.4-.8-3-.8-4.7s.3-3.3.8-4.8c.5-1.5,1.3-2.7,2.2-3.8,1-1.1,2.1-1.9,3.5-2.6,1.4-.6,3-.9,4.7-.9s2.5.2,3.6.5c1.1.4,2.1.9,3,1.6.9.7,1.6,1.6,2.2,2.6.6,1,.9,2.2,1.1,3.5h-4.9c0-.6-.3-1.1-.6-1.6Z"/>
    <path class="st2" d="M206.6,128.2c-.3-.5-.7-.9-1.1-1.3-.4-.4-1-.6-1.5-.8-.6-.2-1.2-.3-1.8-.3-1.1,0-2.1.2-2.9.7-.8.4-1.4,1-1.9,1.8-.5.7-.8,1.6-1.1,2.5-.2.9-.3,1.9-.3,2.9s.1,1.9.3,2.8c.2.9.6,1.7,1.1,2.5.5.7,1.1,1.3,1.9,1.7.8.4,1.8.7,2.9.7s2.7-.5,3.6-1.4c.9-.9,1.4-2.2,1.6-3.7h4.9c-.1,1.4-.5,2.7-1,3.9-.5,1.2-1.2,2.1-2.1,2.9-.9.8-1.9,1.4-3.1,1.9-1.2.4-2.5.6-3.9.6s-3.3-.3-4.7-.9c-1.4-.6-2.6-1.4-3.5-2.5-1-1.1-1.7-2.3-2.2-3.8-.5-1.4-.8-3-.8-4.7s.3-3.3.8-4.8c.5-1.5,1.3-2.7,2.2-3.8s2.1-1.9,3.5-2.6c1.4-.6,3-.9,4.7-.9s2.5.2,3.6.5c1.1.4,2.1.9,3,1.6.9.7,1.6,1.6,2.2,2.6.6,1,.9,2.2,1.1,3.5h-4.9c0-.6-.3-1.1-.6-1.6Z"/>
    <path class="st2" d="M220.7,122.1v8.8h9.3v-8.8h5v22.9h-5v-9.9h-9.3v9.9h-5v-22.9h5Z"/>
    <path class="st2" d="M244.4,122.1v22.9h-5v-22.9h5Z"/>
    <path class="st2" d="M248.6,128.9c.5-1.5,1.3-2.7,2.2-3.8,1-1.1,2.1-1.9,3.5-2.6,1.4-.6,3-.9,4.7-.9s3.4.3,4.7.9c1.4.6,2.6,1.5,3.5,2.6,1,1.1,1.7,2.4,2.2,3.8.5,1.5.8,3.1.8,4.8s-.3,3.2-.8,4.7c-.5,1.4-1.3,2.7-2.2,3.8-1,1.1-2.1,1.9-3.5,2.5-1.4.6-3,.9-4.7.9s-3.3-.3-4.7-.9c-1.4-.6-2.6-1.4-3.5-2.5-1-1.1-1.7-2.3-2.2-3.8-.5-1.4-.8-3-.8-4.7s.3-3.3.8-4.8ZM253.2,136.4c.2.9.6,1.7,1.1,2.5.5.7,1.1,1.3,1.9,1.7.8.4,1.8.7,2.9.7s2.1-.2,2.9-.7c.8-.4,1.4-1,1.9-1.7.5-.7.8-1.5,1.1-2.5.2-.9.3-1.8.3-2.8s-.1-2-.3-2.9c-.2-.9-.6-1.8-1.1-2.5-.5-.7-1.1-1.3-1.9-1.8-.8-.4-1.8-.7-2.9-.7s-2.1.2-2.9.7c-.8.4-1.4,1-1.9,1.8-.5.7-.8,1.6-1.1,2.5-.2.9-.3,1.9-.3,2.9s.1,1.9.3,2.8Z"/>
    <path class="st2" d="M120.8,154.5v4.2h-11.1v5.3h9.6v3.9h-9.6v9.5h-5v-22.9h16.1Z"/>
    <path class="st2" d="M128.8,154.5v22.9h-5v-22.9h5Z"/>
    <path class="st2" d="M138.3,154.5v18.7h11.2v4.2h-16.2v-22.9h5Z"/>
    <path class="st2" d="M159.3,154.5l5.4,15.7h0l5.1-15.7h7.1v22.9h-4.7v-16.2h0l-5.6,16.2h-3.9l-5.6-16.1h0v16.1h-4.7v-22.9h7.1Z"/>
    <path class="st2" d="M185.2,171.8c.3.5.6,1,1.1,1.3.5.3,1,.6,1.6.7.6.2,1.3.2,1.9.2s.9,0,1.4-.1c.5,0,1-.2,1.4-.4.4-.2.8-.5,1.1-.9.3-.4.4-.8.4-1.4s-.2-1.1-.6-1.5c-.4-.4-.9-.7-1.6-1-.6-.3-1.4-.5-2.2-.7-.8-.2-1.6-.4-2.5-.6-.9-.2-1.7-.5-2.5-.8-.8-.3-1.5-.7-2.2-1.2-.6-.5-1.2-1.1-1.6-1.8-.4-.7-.6-1.6-.6-2.7s.3-2.2.8-3.1c.5-.9,1.2-1.6,2-2.2.8-.6,1.7-1,2.8-1.3,1-.3,2.1-.4,3.1-.4s2.3.1,3.4.4c1.1.3,2.1.7,2.9,1.3.9.6,1.5,1.4,2,2.3.5.9.8,2.1.8,3.4h-4.9c0-.7-.2-1.3-.4-1.7-.2-.4-.6-.8-1-1.1-.4-.3-.9-.4-1.4-.5-.5-.1-1.1-.2-1.7-.2s-.8,0-1.2.1c-.4,0-.8.2-1.1.4-.3.2-.6.5-.8.8-.2.3-.3.7-.3,1.2s0,.8.3,1.1c.2.3.5.5,1,.8.5.2,1.2.5,2.1.7.9.2,2,.5,3.5.9.4,0,1,.2,1.8.5.8.2,1.5.6,2.3,1.1.7.5,1.4,1.1,1.9,2,.5.8.8,1.9.8,3.2s-.2,2-.6,2.9c-.4.9-1,1.7-1.8,2.3-.8.7-1.8,1.2-3,1.5s-2.6.5-4.1.5-2.5-.2-3.7-.5c-1.2-.3-2.2-.8-3.1-1.5-.9-.7-1.6-1.5-2.2-2.5-.5-1-.8-2.2-.8-3.7h4.9c0,.8.1,1.4.4,2Z"/>
    <g>
      <path class="st2" d="M50.3,143.7l-5.5-6.7c3-2.2,8.5-5.4,15.9-5.5,0,0,0,0,0,0,7.4,0,12.9,3,16,5.2l-5.5,7,3,2.4,17.2-21.6-3-2.4-9.3,11.6c-3.4-2.5-9.8-6.1-18.3-6.1h0s-.2,0-.2,0h0c-8.5.1-14.9,3.8-18.3,6.4l-9.8-12-2.9,2.4,17.7,21.6,2.9-2.4Z"/>
      <path class="st2" d="M50.3,156.9l-5.5,6.7c3,2.2,8.5,5.4,15.9,5.5,0,0,0,0,0,0,7.4,0,12.9-3,16-5.2l-5.5-7,3-2.4,17.2,21.6-3,2.4-9.3-11.6c-3.4,2.5-9.8,6.1-18.3,6.1h0s-.2,0-.2,0h0c-8.5-.1-14.9-3.8-18.3-6.4l-9.8,12-2.9-2.4,17.7-21.6,2.9,2.4Z"/>
    </g>
  </g>
  <g>
    <path class="st0" d="M469,139.3c.3.5.6,1,1.1,1.3.5.3,1,.6,1.6.7.6.2,1.3.2,1.9.2s.9,0,1.4-.1c.5,0,1-.2,1.4-.4.4-.2.8-.5,1.1-.9.3-.4.4-.8.4-1.4s-.2-1.1-.6-1.5c-.4-.4-.9-.7-1.6-1-.6-.3-1.4-.5-2.2-.7-.8-.2-1.6-.4-2.5-.6-.9-.2-1.7-.5-2.5-.8-.8-.3-1.5-.7-2.2-1.2-.6-.5-1.2-1.1-1.6-1.8-.4-.7-.6-1.6-.6-2.7s.3-2.2.8-3.1c.5-.9,1.2-1.6,2-2.2.8-.6,1.7-1,2.8-1.3,1-.3,2.1-.4,3.1-.4s2.3.1,3.4.4c1.1.3,2.1.7,2.9,1.3.9.6,1.5,1.4,2,2.3.5.9.8,2.1.8,3.4h-4.9c0-.7-.2-1.3-.4-1.7-.2-.4-.6-.8-1-1.1-.4-.3-.9-.4-1.4-.5-.5-.1-1.1-.2-1.7-.2s-.8,0-1.2.1c-.4,0-.8.2-1.1.4-.3.2-.6.5-.8.8-.2.3-.3.7-.3,1.2s0,.8.3,1.1c.2.3.5.5,1,.8.5.2,1.2.5,2.1.7.9.2,2,.5,3.5.9.4,0,1,.2,1.8.5.8.2,1.5.6,2.3,1.1.7.5,1.4,1.1,1.9,2,.5.8.8,1.9.8,3.2s-.2,2-.6,2.9c-.4.9-1,1.7-1.8,2.3-.8.7-1.8,1.2-3,1.5-1.2.4-2.6.5-4.1.5s-2.5-.2-3.7-.5c-1.2-.3-2.2-.8-3.1-1.5-.9-.7-1.6-1.5-2.2-2.5-.5-1-.8-2.2-.8-3.7h4.9c0,.8.1,1.4.4,2Z"/>
    <path class="st0" d="M496.3,122.1c1.4,0,2.7.2,3.7.6,1,.4,1.8,1,2.5,1.7.6.7,1.1,1.5,1.4,2.3.3.9.4,1.8.4,2.7s-.1,1.8-.4,2.7c-.3.9-.7,1.7-1.4,2.4-.6.7-1.4,1.2-2.5,1.7-1,.4-2.2.6-3.7.6h-5.3v8.2h-5v-22.9h10.3ZM494.9,132.9c.6,0,1.1,0,1.7-.1.5,0,1-.3,1.4-.5.4-.2.7-.6,1-1,.2-.4.4-1,.4-1.8s-.1-1.3-.4-1.8c-.2-.4-.6-.8-1-1-.4-.2-.9-.4-1.4-.5-.5,0-1.1-.1-1.7-.1h-3.9v6.9h3.9Z"/>
    <path class="st0" d="M524.5,122.1v4.2h-12.1v4.9h11.1v3.9h-11.1v5.6h12.3v4.2h-17.4v-22.9h17.1Z"/>
    <path class="st0" d="M542.8,128.2c-.3-.5-.7-.9-1.1-1.3-.4-.4-1-.6-1.5-.8-.6-.2-1.2-.3-1.8-.3-1.1,0-2.1.2-2.9.7-.8.4-1.4,1-1.9,1.8-.5.7-.8,1.6-1.1,2.5-.2.9-.3,1.9-.3,2.9s.1,1.9.3,2.8c.2.9.6,1.7,1.1,2.5.5.7,1.1,1.3,1.9,1.7.8.4,1.8.7,2.9.7s2.7-.5,3.6-1.4c.9-.9,1.4-2.2,1.6-3.7h4.9c-.1,1.4-.5,2.7-1,3.9-.5,1.2-1.2,2.1-2.1,2.9-.9.8-1.9,1.4-3.1,1.9-1.2.4-2.5.6-3.9.6s-3.3-.3-4.7-.9c-1.4-.6-2.6-1.4-3.5-2.5-1-1.1-1.7-2.3-2.2-3.8-.5-1.4-.8-3-.8-4.7s.3-3.3.8-4.8c.5-1.5,1.3-2.7,2.2-3.8,1-1.1,2.1-1.9,3.5-2.6,1.4-.6,3-.9,4.7-.9s2.5.2,3.6.5c1.1.4,2.1.9,3,1.6.9.7,1.6,1.6,2.2,2.6.6,1,.9,2.2,1.1,3.5h-4.9c0-.6-.3-1.1-.6-1.6Z"/>
    <path class="st0" d="M566.6,128.2c-.3-.5-.7-.9-1.1-1.3-.4-.4-1-.6-1.5-.8-.6-.2-1.2-.3-1.8-.3-1.1,0-2.1.2-2.9.7-.8.4-1.4,1-1.9,1.8-.5.7-.8,1.6-1.1,2.5-.2.9-.3,1.9-.3,2.9s.1,1.9.3,2.8c.2.9.6,1.7,1.1,2.5.5.7,1.1,1.3,1.9,1.7.8.4,1.8.7,2.9.7s2.7-.5,3.6-1.4c.9-.9,1.4-2.2,1.6-3.7h4.9c-.1,1.4-.5,2.7-1,3.9-.5,1.2-1.2,2.1-2.1,2.9-.9.8-1.9,1.4-3.1,1.9-1.2.4-2.5.6-3.9.6s-3.3-.3-4.7-.9c-1.4-.6-2.6-1.4-3.5-2.5-1-1.1-1.7-2.3-2.2-3.8-.5-1.4-.8-3-.8-4.7s.3-3.3.8-4.8c.5-1.5,1.3-2.7,2.2-3.8s2.1-1.9,3.5-2.6c1.4-.6,3-.9,4.7-.9s2.5.2,3.6.5c1.1.4,2.1.9,3,1.6.9.7,1.6,1.6,2.2,2.6.6,1,.9,2.2,1.1,3.5h-4.9c0-.6-.3-1.1-.6-1.6Z"/>
    <path class="st0" d="M580.7,122.1v8.8h9.3v-8.8h5v22.9h-5v-9.9h-9.3v9.9h-5v-22.9h5Z"/>
    <path class="st0" d="M604.4,122.1v22.9h-5v-22.9h5Z"/>
    <path class="st0" d="M608.6,128.9c.5-1.5,1.3-2.7,2.2-3.8,1-1.1,2.1-1.9,3.5-2.6,1.4-.6,3-.9,4.7-.9s3.4.3,4.7.9c1.4.6,2.6,1.5,3.5,2.6,1,1.1,1.7,2.4,2.2,3.8.5,1.5.8,3.1.8,4.8s-.3,3.2-.8,4.7c-.5,1.4-1.3,2.7-2.2,3.8-1,1.1-2.1,1.9-3.5,2.5-1.4.6-3,.9-4.7.9s-3.3-.3-4.7-.9c-1.4-.6-2.6-1.4-3.5-2.5-1-1.1-1.7-2.3-2.2-3.8-.5-1.4-.8-3-.8-4.7s.3-3.3.8-4.8ZM613.2,136.4c.2.9.6,1.7,1.1,2.5.5.7,1.1,1.3,1.9,1.7.8.4,1.8.7,2.9.7s2.1-.2,2.9-.7c.8-.4,1.4-1,1.9-1.7.5-.7.8-1.5,1.1-2.5.2-.9.3-1.8.3-2.8s-.1-2-.3-2.9c-.2-.9-.6-1.8-1.1-2.5-.5-.7-1.1-1.3-1.9-1.8-.8-.4-1.8-.7-2.9-.7s-2.1.2-2.9.7c-.8.4-1.4,1-1.9,1.8-.5.7-.8,1.6-1.1,2.5-.2.9-.3,1.9-.3,2.9s.1,1.9.3,2.8Z"/>
    <path class="st0" d="M480.8,154.5v4.2h-11.1v5.3h9.6v3.9h-9.6v9.5h-5v-22.9h16.1Z"/>
    <path class="st0" d="M488.8,154.5v22.9h-5v-22.9h5Z"/>
    <path class="st0" d="M498.3,154.5v18.7h11.2v4.2h-16.2v-22.9h5Z"/>
    <path class="st0" d="M519.3,154.5l5.4,15.7h0l5.1-15.7h7.1v22.9h-4.7v-16.2h0l-5.6,16.2h-3.9l-5.6-16.1h0v16.1h-4.7v-22.9h7.1Z"/>
    <path class="st0" d="M545.2,171.8c.3.5.6,1,1.1,1.3.5.3,1,.6,1.6.7.6.2,1.3.2,1.9.2s.9,0,1.4-.1c.5,0,1-.2,1.4-.4.4-.2.8-.5,1.1-.9.3-.4.4-.8.4-1.4s-.2-1.1-.6-1.5c-.4-.4-.9-.7-1.6-1-.6-.3-1.4-.5-2.2-.7-.8-.2-1.6-.4-2.5-.6-.9-.2-1.7-.5-2.5-.8-.8-.3-1.5-.7-2.2-1.2-.6-.5-1.2-1.1-1.6-1.8-.4-.7-.6-1.6-.6-2.7s.3-2.2.8-3.1c.5-.9,1.2-1.6,2-2.2.8-.6,1.7-1,2.8-1.3,1-.3,2.1-.4,3.1-.4s2.3.1,3.4.4c1.1.3,2.1.7,2.9,1.3.9.6,1.5,1.4,2,2.3.5.9.8,2.1.8,3.4h-4.9c0-.7-.2-1.3-.4-1.7-.2-.4-.6-.8-1-1.1-.4-.3-.9-.4-1.4-.5-.5-.1-1.1-.2-1.7-.2s-.8,0-1.2.1c-.4,0-.8.2-1.1.4-.3.2-.6.5-.8.8-.2.3-.3.7-.3,1.2s0,.8.3,1.1c.2.3.5.5,1,.8.5.2,1.2.5,2.1.7.9.2,2,.5,3.5.9.4,0,1,.2,1.8.5.8.2,1.5.6,2.3,1.1.7.5,1.4,1.1,1.9,2,.5.8.8,1.9.8,3.2s-.2,2-.6,2.9c-.4.9-1,1.7-1.8,2.3-.8.7-1.8,1.2-3,1.5s-2.6.5-4.1.5-2.5-.2-3.7-.5c-1.2-.3-2.2-.8-3.1-1.5-.9-.7-1.6-1.5-2.2-2.5-.5-1-.8-2.2-.8-3.7h4.9c0,.8.1,1.4.4,2Z"/>
    <g>
      <path class="st3" d="M410.3,143.7l-5.5-6.7c3-2.2,8.5-5.4,15.9-5.5,0,0,0,0,0,0,7.4,0,12.9,3,16,5.2l-5.5,7,3,2.4,17.2-21.6-3-2.4-9.3,11.6c-3.4-2.5-9.8-6.1-18.3-6.1h0s-.2,0-.2,0h0c-8.5.1-14.9,3.8-18.3,6.4l-9.8-12-2.9,2.4,17.7,21.6,2.9-2.4Z"/>
      <path class="st3" d="M410.3,156.9l-5.5,6.7c3,2.2,8.5,5.4,15.9,5.5,0,0,0,0,0,0,7.4,0,12.9-3,16-5.2l-5.5-7,3-2.4,17.2,21.6-3,2.4-9.3-11.6c-3.4,2.5-9.8,6.1-18.3,6.1h0s-.2,0-.2,0h0c-8.5-.1-14.9-3.8-18.3-6.4l-9.8,12-2.9-2.4,17.7-21.6,2.9,2.4Z"/>
    </g>
  </g>
  <g>
    <path class="st1" d="M829,139.3c.3.5.6,1,1.1,1.3.5.3,1,.6,1.6.7.6.2,1.3.2,1.9.2s.9,0,1.4-.1c.5,0,1-.2,1.4-.4.4-.2.8-.5,1.1-.9.3-.4.4-.8.4-1.4s-.2-1.1-.6-1.5c-.4-.4-.9-.7-1.6-1-.6-.3-1.4-.5-2.2-.7-.8-.2-1.6-.4-2.5-.6-.9-.2-1.7-.5-2.5-.8-.8-.3-1.5-.7-2.2-1.2-.6-.5-1.2-1.1-1.6-1.8-.4-.7-.6-1.6-.6-2.7s.3-2.2.8-3.1c.5-.9,1.2-1.6,2-2.2.8-.6,1.7-1,2.8-1.3,1-.3,2.1-.4,3.1-.4s2.3.1,3.4.4c1.1.3,2.1.7,2.9,1.3.9.6,1.5,1.4,2,2.3.5.9.8,2.1.8,3.4h-4.9c0-.7-.2-1.3-.4-1.7-.2-.4-.6-.8-1-1.1-.4-.3-.9-.4-1.4-.5-.5-.1-1.1-.2-1.7-.2s-.8,0-1.2.1c-.4,0-.8.2-1.1.4-.3.2-.6.5-.8.8-.2.3-.3.7-.3,1.2s0,.8.3,1.1c.2.3.5.5,1,.8.5.2,1.2.5,2.1.7.9.2,2,.5,3.5.9.4,0,1,.2,1.8.5.8.2,1.5.6,2.3,1.1.7.5,1.4,1.1,1.9,2,.5.8.8,1.9.8,3.2s-.2,2-.6,2.9c-.4.9-1,1.7-1.8,2.3-.8.7-1.8,1.2-3,1.5-1.2.4-2.6.5-4.1.5s-2.5-.2-3.7-.5c-1.2-.3-2.2-.8-3.1-1.5-.9-.7-1.6-1.5-2.2-2.5-.5-1-.8-2.2-.8-3.7h4.9c0,.8.1,1.4.4,2Z"/>
    <path class="st1" d="M856.3,122.1c1.4,0,2.7.2,3.7.6,1,.4,1.8,1,2.5,1.7.6.7,1.1,1.5,1.4,2.3.3.9.4,1.8.4,2.7s-.1,1.8-.4,2.7c-.3.9-.7,1.7-1.4,2.4-.6.7-1.4,1.2-2.5,1.7-1,.4-2.2.6-3.7.6h-5.3v8.2h-5v-22.9h10.3ZM854.9,132.9c.6,0,1.1,0,1.7-.1.5,0,1-.3,1.4-.5.4-.2.7-.6,1-1,.2-.4.4-1,.4-1.8s-.1-1.3-.4-1.8c-.2-.4-.6-.8-1-1-.4-.2-.9-.4-1.4-.5-.5,0-1.1-.1-1.7-.1h-3.9v6.9h3.9Z"/>
    <path class="st1" d="M884.5,122.1v4.2h-12.1v4.9h11.1v3.9h-11.1v5.6h12.3v4.2h-17.4v-22.9h17.1Z"/>
    <path class="st1" d="M902.8,128.2c-.3-.5-.7-.9-1.1-1.3-.4-.4-1-.6-1.5-.8-.6-.2-1.2-.3-1.8-.3-1.1,0-2.1.2-2.9.7-.8.4-1.4,1-1.9,1.8-.5.7-.8,1.6-1.1,2.5-.2.9-.3,1.9-.3,2.9s.1,1.9.3,2.8c.2.9.6,1.7,1.1,2.5.5.7,1.1,1.3,1.9,1.7.8.4,1.8.7,2.9.7s2.7-.5,3.6-1.4c.9-.9,1.4-2.2,1.6-3.7h4.9c-.1,1.4-.5,2.7-1,3.9-.5,1.2-1.2,2.1-2.1,2.9-.9.8-1.9,1.4-3.1,1.9-1.2.4-2.5.6-3.9.6s-3.3-.3-4.7-.9c-1.4-.6-2.6-1.4-3.5-2.5-1-1.1-1.7-2.3-2.2-3.8-.5-1.4-.8-3-.8-4.7s.3-3.3.8-4.8c.5-1.5,1.3-2.7,2.2-3.8,1-1.1,2.1-1.9,3.5-2.6,1.4-.6,3-.9,4.7-.9s2.5.2,3.6.5c1.1.4,2.1.9,3,1.6.9.7,1.6,1.6,2.2,2.6.6,1,.9,2.2,1.1,3.5h-4.9c0-.6-.3-1.1-.6-1.6Z"/>
    <path class="st1" d="M926.6,128.2c-.3-.5-.7-.9-1.1-1.3-.4-.4-1-.6-1.5-.8-.6-.2-1.2-.3-1.8-.3-1.1,0-2.1.2-2.9.7-.8.4-1.4,1-1.9,1.8-.5.7-.8,1.6-1.1,2.5-.2.9-.3,1.9-.3,2.9s.1,1.9.3,2.8c.2.9.6,1.7,1.1,2.5.5.7,1.1,1.3,1.9,1.7.8.4,1.8.7,2.9.7s2.7-.5,3.6-1.4c.9-.9,1.4-2.2,1.6-3.7h4.9c-.1,1.4-.5,2.7-1,3.9-.5,1.2-1.2,2.1-2.1,2.9-.9.8-1.9,1.4-3.1,1.9-1.2.4-2.5.6-3.9.6s-3.3-.3-4.7-.9c-1.4-.6-2.6-1.4-3.5-2.5-1-1.1-1.7-2.3-2.2-3.8-.5-1.4-.8-3-.8-4.7s.3-3.3.8-4.8c.5-1.5,1.3-2.7,2.2-3.8s2.1-1.9,3.5-2.6c1.4-.6,3-.9,4.7-.9s2.5.2,3.6.5c1.1.4,2.1.9,3,1.6.9.7,1.6,1.6,2.2,2.6.6,1,.9,2.2,1.1,3.5h-4.9c0-.6-.3-1.1-.6-1.6Z"/>
    <path class="st1" d="M940.7,122.1v8.8h9.3v-8.8h5v22.9h-5v-9.9h-9.3v9.9h-5v-22.9h5Z"/>
    <path class="st1" d="M964.4,122.1v22.9h-5v-22.9h5Z"/>
    <path class="st1" d="M968.6,128.9c.5-1.5,1.3-2.7,2.2-3.8,1-1.1,2.1-1.9,3.5-2.6,1.4-.6,3-.9,4.7-.9s3.4.3,4.7.9c1.4.6,2.6,1.5,3.5,2.6,1,1.1,1.7,2.4,2.2,3.8.5,1.5.8,3.1.8,4.8s-.3,3.2-.8,4.7c-.5,1.4-1.3,2.7-2.2,3.8-1,1.1-2.1,1.9-3.5,2.5-1.4.6-3,.9-4.7.9s-3.3-.3-4.7-.9c-1.4-.6-2.6-1.4-3.5-2.5-1-1.1-1.7-2.3-2.2-3.8-.5-1.4-.8-3-.8-4.7s.3-3.3.8-4.8ZM973.2,136.4c.2.9.6,1.7,1.1,2.5.5.7,1.1,1.3,1.9,1.7.8.4,1.8.7,2.9.7s2.1-.2,2.9-.7c.8-.4,1.4-1,1.9-1.7.5-.7.8-1.5,1.1-2.5.2-.9.3-1.8.3-2.8s-.1-2-.3-2.9c-.2-.9-.6-1.8-1.1-2.5-.5-.7-1.1-1.3-1.9-1.8-.8-.4-1.8-.7-2.9-.7s-2.1.2-2.9.7c-.8.4-1.4,1-1.9,1.8-.5.7-.8,1.6-1.1,2.5-.2.9-.3,1.9-.3,2.9s.1,1.9.3,2.8Z"/>
    <path class="st1" d="M840.8,154.5v4.2h-11.1v5.3h9.6v3.9h-9.6v9.5h-5v-22.9h16.1Z"/>
    <path class="st1" d="M848.8,154.5v22.9h-5v-22.9h5Z"/>
    <path class="st1" d="M858.3,154.5v18.7h11.2v4.2h-16.2v-22.9h5Z"/>
    <path class="st1" d="M879.3,154.5l5.4,15.7h0l5.1-15.7h7.1v22.9h-4.7v-16.2h0l-5.6,16.2h-3.9l-5.6-16.1h0v16.1h-4.7v-22.9h7.1Z"/>
    <path class="st1" d="M905.2,171.8c.3.5.6,1,1.1,1.3.5.3,1,.6,1.6.7.6.2,1.3.2,1.9.2s.9,0,1.4-.1c.5,0,1-.2,1.4-.4.4-.2.8-.5,1.1-.9.3-.4.4-.8.4-1.4s-.2-1.1-.6-1.5c-.4-.4-.9-.7-1.6-1-.6-.3-1.4-.5-2.2-.7-.8-.2-1.6-.4-2.5-.6-.9-.2-1.7-.5-2.5-.8-.8-.3-1.5-.7-2.2-1.2-.6-.5-1.2-1.1-1.6-1.8-.4-.7-.6-1.6-.6-2.7s.3-2.2.8-3.1c.5-.9,1.2-1.6,2-2.2.8-.6,1.7-1,2.8-1.3,1-.3,2.1-.4,3.1-.4s2.3.1,3.4.4c1.1.3,2.1.7,2.9,1.3.9.6,1.5,1.4,2,2.3.5.9.8,2.1.8,3.4h-4.9c0-.7-.2-1.3-.4-1.7-.2-.4-.6-.8-1-1.1-.4-.3-.9-.4-1.4-.5-.5-.1-1.1-.2-1.7-.2s-.8,0-1.2.1c-.4,0-.8.2-1.1.4-.3.2-.6.5-.8.8-.2.3-.3.7-.3,1.2s0,.8.3,1.1c.2.3.5.5,1,.8.5.2,1.2.5,2.1.7.9.2,2,.5,3.5.9.4,0,1,.2,1.8.5.8.2,1.5.6,2.3,1.1.7.5,1.4,1.1,1.9,2,.5.8.8,1.9.8,3.2s-.2,2-.6,2.9c-.4.9-1,1.7-1.8,2.3-.8.7-1.8,1.2-3,1.5s-2.6.5-4.1.5-2.5-.2-3.7-.5c-1.2-.3-2.2-.8-3.1-1.5-.9-.7-1.6-1.5-2.2-2.5-.5-1-.8-2.2-.8-3.7h4.9c0,.8.1,1.4.4,2Z"/>
    <g>
      <path class="st1" d="M770.3,143.7l-5.5-6.7c3-2.2,8.5-5.4,15.9-5.5,0,0,0,0,0,0,7.4,0,12.9,3,16,5.2l-5.5,7,3,2.4,17.2-21.6-3-2.4-9.3,11.6c-3.4-2.5-9.8-6.1-18.3-6.1h0s-.2,0-.2,0h0c-8.5.1-14.9,3.8-18.3,6.4l-9.8-12-2.9,2.4,17.7,21.6,2.9-2.4Z"/>
      <path class="st1" d="M770.3,156.9l-5.5,6.7c3,2.2,8.5,5.4,15.9,5.5,0,0,0,0,0,0,7.4,0,12.9-3,16-5.2l-5.5-7,3-2.4,17.2,21.6-3,2.4-9.3-11.6c-3.4,2.5-9.8,6.1-18.3,6.1h0s-.2,0-.2,0h0c-8.5-.1-14.9-3.8-18.3-6.4l-9.8,12-2.9-2.4,17.7-21.6,2.9,2.4Z"/>
    </g>
  </g>
  <g>
    <path class="st2" d="M119.3,480l-16.5-20c9-6.7,25.6-16.1,47.8-16.5,0,0,.1,0,.2,0,22.1,0,38.7,9.1,47.8,15.7l-16.6,20.9,9,7.1,51.6-64.8-9-7.1-27.8,34.9c-10.3-7.5-29.4-18.1-55-18.1h0s-.5,0-.5,0h0c-25.6.4-44.6,11.4-54.7,19.1l-29.3-35.8-8.8,7.3,53.1,64.7,8.8-7.3Z"/>
    <path class="st2" d="M119.3,519.6l-16.5,20c9,6.7,25.6,16.1,47.8,16.5,0,0,.1,0,.2,0,22.1,0,38.7-9.1,47.8-15.7l-16.6-20.9,9-7.1,51.6,64.8-9,7.1-27.8-34.9c-10.3,7.5-29.4,18.1-55,18.1h0s-.5,0-.5,0h0c-25.6-.4-44.6-11.4-54.7-19.1l-29.3,35.8-8.8-7.3,53.1-64.7,8.8,7.3Z"/>
  </g>
  <g>
    <path class="st3" d="M479.3,480l-16.5-20c9-6.7,25.6-16.1,47.8-16.5,0,0,.1,0,.2,0,22.1,0,38.7,9.1,47.8,15.7l-16.6,20.9,9,7.1,51.6-64.8-9-7.1-27.8,34.9c-10.3-7.5-29.4-18.1-55-18.1h0s-.5,0-.5,0h0c-25.6.4-44.6,11.4-54.7,19.1l-29.3-35.8-8.8,7.3,53.1,64.7,8.8-7.3Z"/>
    <path class="st3" d="M479.3,519.6l-16.5,20c9,6.7,25.6,16.1,47.8,16.5,0,0,.1,0,.2,0,22.1,0,38.7-9.1,47.8-15.7l-16.6-20.9,9-7.1,51.6,64.8-9,7.1-27.8-34.9c-10.3,7.5-29.4,18.1-55,18.1h0s-.5,0-.5,0h0c-25.6-.4-44.6-11.4-54.7-19.1l-29.3,35.8-8.8-7.3,53.1-64.7,8.8,7.3Z"/>
  </g>
  <g>
    <path class="st1" d="M839.3,480l-16.5-20c9-6.7,25.6-16.1,47.8-16.5,0,0,.1,0,.2,0,22.1,0,38.7,9.1,47.8,15.7l-16.6,20.9,9,7.1,51.6-64.8-9-7.1-27.8,34.9c-10.3-7.5-29.4-18.1-55-18.1h0s-.5,0-.5,0h0c-25.6.4-44.6,11.4-54.7,19.1l-29.3-35.8-8.8,7.3,53.1,64.7,8.8-7.3Z"/>
    <path class="st1" d="M839.3,519.6l-16.5,20c9,6.7,25.6,16.1,47.8,16.5,0,0,.1,0,.2,0,22.1,0,38.7-9.1,47.8-15.7l-16.6-20.9,9-7.1,51.6,64.8-9,7.1-27.8-34.9c-10.3,7.5-29.4,18.1-55,18.1h0s-.5,0-.5,0h0c-25.6-.4-44.6-11.4-54.7-19.1l-29.3,35.8-8.8-7.3,53.1-64.7,8.8,7.3Z"/>
  </g>
</svg>